<svg width="85" height="25" viewBox="0 0 85 25" fill="none" xmlns="http://www.w3.org/2000/svg">
<path opacity="0.3" d="M85.0005 1.7041V18.3999H82.3233L82.3234 16.2229C80.8663 17.5753 78.9286 18.3999 76.8017 18.3999C73.9317 18.3999 71.4062 16.8984 69.9414 14.6248C70.788 13.3113 71.2802 11.7402 71.2802 10.052C71.2802 8.36379 70.788 6.79264 69.9418 5.47917C71.4062 3.20559 73.9317 1.7041 76.8017 1.7041C78.9286 1.7041 80.8663 2.52871 82.3234 3.88105L82.3233 1.7041H85.0005ZM76.8017 4.42994C73.7523 4.42994 71.2802 6.94702 71.2802 10.052C71.2802 13.157 73.7523 15.674 76.8017 15.674C79.8512 15.674 82.3233 13.157 82.3233 10.052C82.3233 6.94702 79.8512 4.42994 76.8017 4.42994Z" fill="#00B2C2"/>
<path opacity="0.3" d="M2.67713 1.7041L2.67711 3.88105C4.13412 2.52871 6.07184 1.7041 8.19872 1.7041C11.0687 1.7041 13.5943 3.20559 15.0591 5.47917C14.2125 6.79264 13.7203 8.36379 13.7203 10.052C13.7203 11.7402 14.2125 13.3113 15.0587 14.6248C13.5943 16.8984 11.0687 18.3999 8.19872 18.3999C6.07184 18.3999 4.13412 17.5753 2.67711 16.2229L2.67713 23.1701H0V1.7041H2.67713ZM8.19872 4.42994C5.14923 4.42994 2.67713 6.94702 2.67713 10.052C2.67713 13.157 5.14923 15.674 8.19872 15.674C11.2482 15.674 13.7203 13.157 13.7203 10.052C13.7203 6.94702 11.2482 4.42994 8.19872 4.42994Z" fill="#00B2C2"/>
<path opacity="0.6" d="M30.118 1.7041V3.88892C28.4731 5.41875 27.4409 7.62258 27.4409 10.0724C27.4409 12.5222 28.4731 14.726 30.118 16.2558V18.3999H27.4409L27.4409 16.2229C25.9839 17.5753 24.0462 18.3999 21.9194 18.3999C17.3914 18.3999 13.7207 14.6624 13.7207 10.052C13.7207 5.44158 17.3914 1.7041 21.9194 1.7041C24.0462 1.7041 25.9839 2.52871 27.4409 3.88105L27.4409 1.7041H30.118ZM21.9194 4.42994C18.8699 4.42994 16.3978 6.94702 16.3978 10.052C16.3978 13.157 18.8699 15.674 21.9194 15.674C24.9688 15.674 27.4409 13.157 27.4409 10.052C27.4409 6.94702 24.9688 4.42994 21.9194 4.42994Z" fill="#00B2C2"/>
<path opacity="0.6" d="M57.559 1.7041L57.5593 3.88075C59.0163 2.52858 60.9539 1.7041 63.0807 1.7041C67.6087 1.7041 71.2795 5.44158 71.2795 10.052C71.2795 14.6624 67.6087 18.3999 63.0807 18.3999C60.9539 18.3999 59.0163 17.5754 57.5593 16.2232L57.559 23.1701H54.8818V16.2229C56.5268 14.6962 57.559 12.4968 57.559 10.052C57.559 7.60715 56.5268 5.40778 54.8818 3.88104V1.7041H57.559ZM63.0807 4.42994C60.0311 4.42994 57.559 6.94702 57.559 10.052C57.559 13.157 60.0311 15.674 63.0807 15.674C66.1302 15.674 68.6023 13.157 68.6023 10.052C68.6023 6.94702 66.1302 4.42994 63.0807 4.42994Z" fill="#00B2C2"/>
<path d="M43.839 0V3.88023L43.9517 3.7779C45.3953 2.48662 47.2882 1.70365 49.3607 1.70365C53.8888 1.70365 57.5595 5.44113 57.5595 10.0515C57.5595 14.662 53.8888 18.3994 49.3607 18.3994C47.2338 18.3994 45.2961 17.5748 43.839 16.2225L43.839 18.4367C43.839 20.5628 43.0038 22.5612 41.5381 24.0815L41.4297 24.1918L39.5555 22.2414C40.5514 21.2453 41.1242 19.9524 41.1601 18.5748L41.1619 18.4367L41.1619 16.2554C39.7049 17.6105 37.7671 18.4367 35.6402 18.4367C31.1121 18.4367 27.4414 14.6917 27.4414 10.0719C27.4414 5.45216 31.1121 1.70711 35.6402 1.70711C37.7671 1.70711 39.7049 2.53338 41.1619 3.88847L41.1619 0H43.839ZM35.6402 4.43848C32.5907 4.43848 30.1186 6.96066 30.1186 10.0719C30.1186 13.1832 32.5907 15.7054 35.6402 15.7054C38.6897 15.7054 41.1619 13.1832 41.1619 10.0719C41.1619 6.96066 38.6897 4.43848 35.6402 4.43848ZM49.3607 4.42949C46.3112 4.42949 43.8391 6.94657 43.8391 10.0515C43.8391 13.1565 46.3112 15.6736 49.3607 15.6736C52.4102 15.6736 54.8824 13.1565 54.8824 10.0515C54.8824 6.94657 52.4102 4.42949 49.3607 4.42949Z" fill="#00B2C2"/>
</svg>
