<svg width="35" height="36" viewBox="0 0 35 36" fill="none" xmlns="http://www.w3.org/2000/svg">
<path d="M17.5 35.5C27.165 35.5 35 27.665 35 18C35 8.33502 27.165 0.5 17.5 0.5C7.83502 0.5 0 8.33502 0 18C0 27.665 7.83502 35.5 17.5 35.5Z" fill="#00B2C2"/>
<path d="M18.3857 11.3545V13.8772L18.4603 13.8106C19.4158 12.9711 20.6688 12.4621 22.0408 12.4621C25.0381 12.4621 27.468 14.8919 27.468 17.8893C27.468 20.8867 25.0381 23.3165 22.0408 23.3165C20.6329 23.3165 19.3502 22.7804 18.3857 21.9012L18.3857 23.3408C18.3857 24.723 17.8328 26.0222 16.8625 27.0106L16.7908 27.0823L15.5502 25.8143C16.2094 25.1667 16.5886 24.3262 16.6123 23.4305L16.6135 23.3408L16.6135 21.9226C15.6491 22.8036 14.3664 23.3408 12.9585 23.3408C9.9611 23.3408 7.53125 20.906 7.53125 17.9026C7.53125 14.8991 9.9611 12.4643 12.9585 12.4643C14.3664 12.4643 15.6491 13.0015 16.6135 13.8825L16.6135 11.3545H18.3857ZM12.9585 14.2401C10.9398 14.2401 9.3034 15.8798 9.3034 17.9026C9.3034 19.9253 10.9398 21.565 12.9585 21.565C14.9771 21.565 16.6135 19.9253 16.6135 17.9026C16.6135 15.8798 14.9771 14.2401 12.9585 14.2401ZM22.0408 14.2342C20.0221 14.2342 18.3857 15.8707 18.3857 17.8893C18.3857 19.9079 20.0221 21.5444 22.0408 21.5444C24.0594 21.5444 25.6958 19.9079 25.6958 17.8893C25.6958 15.8707 24.0594 14.2342 22.0408 14.2342Z" fill="white"/>
</svg>
